<?xml version="1.0" standalone="no"?>
<!DOCTYPE svg PUBLIC "-//W3C//DTD SVG 20010904//EN"
 "http://www.w3.org/TR/2001/REC-SVG-20010904/DTD/svg10.dtd">
<svg version="1.0" xmlns="http://www.w3.org/2000/svg"
 width="360.000000pt" height="360.000000pt" viewBox="0 0 360.000000 360.000000"
 preserveAspectRatio="xMidYMid meet">

<g transform="translate(0.000000,360.000000) scale(0.100000,-0.100000)"
fill="#000000" stroke="none">
<path d="M254 3014 c5 -14 126 -223 696 -1209 277 -479 827 -1431 837 -1449 8
-15 19 -3 70 85 66 114 816 1411 1086 1879 94 162 223 387 289 499 65 112 118
205 118 207 0 2 -698 4 -1551 4 -1418 0 -1551 -1 -1545 -16z m2766 -180 c0 -4
-287 -502 -1064 -1845 -72 -124 -138 -236 -146 -248 -14 -21 -20 -14 -129 176
-63 109 -154 266 -202 348 -48 83 -263 456 -479 830 -216 374 -401 695 -412
713 l-20 32 1226 0 c674 0 1226 -3 1226 -6z"/>
</g>
</svg>
